<svg width="21" height="22" viewBox="0 0 21 22" fill="none" xmlns="http://www.w3.org/2000/svg">
<path d="M10.1468 0.709211L9.8153 1.04062C9.59564 1.26027 9.59564 1.61643 9.8153 1.83613L18.1822 10.203H0.5625C0.251859 10.203 0 10.4549 0 10.7655V11.2343C0 11.5449 0.251859 11.7968 0.5625 11.7968H18.1822L9.8153 20.1637C9.59564 20.3834 9.59564 20.7395 9.8153 20.9592L10.1468 21.2906C10.3664 21.5103 10.7226 21.5103 10.9422 21.2906L20.8352 11.3977C21.0549 11.178 21.0549 10.8218 20.8352 10.6021L10.9422 0.709211C10.7226 0.489508 10.3664 0.489508 10.1468 0.709211Z" fill="black"/>
</svg>
