<svg width="155" height="137" viewBox="0 0 155 137" fill="none" xmlns="http://www.w3.org/2000/svg">
<g clip-path="url(#clip0_152_88)">
<path d="M20.0152 113.453C19.1403 114.228 18.4332 115.173 17.9374 116.232C17.4417 117.29 17.1679 118.439 17.1328 119.607C17.0977 120.775 17.3021 121.938 17.7334 123.024C18.1647 124.11 18.8137 125.096 19.6406 125.922L28.2031 134.485C29.029 135.312 30.0153 135.961 31.1015 136.392C32.1876 136.823 33.3505 137.028 34.5187 136.993C35.6868 136.957 36.8353 136.684 37.8936 136.188C38.9519 135.692 39.8975 134.985 40.6723 134.11L72.1127 98.6025L56.9678 80.7283L20.0152 113.453ZM146.232 25.3717L121.133 47.0937C120.732 47.4683 119.554 46.291 119.902 45.8629L140.987 19.9345C144.305 15.8406 138.204 9.82009 134.164 13.1113L108.236 34.1965C107.781 34.5711 106.63 33.367 106.978 32.9656L128.705 7.87212C132.13 3.93872 126.378 -2.29585 122.07 0.861572C121.026 1.61079 101.493 15.4446 95.6595 21.251C86.7492 30.1614 85.6254 40.5434 91.3515 50.2565C83.2172 57.4543 86.107 54.9123 78.4008 61.7356L92.85 75.1413C99.9408 67.1139 96.7031 70.8065 103.821 62.7524C113.186 68.2913 123.702 67.5956 132.853 58.4176C138.659 52.6112 152.493 33.1047 153.242 32.0344C156.4 27.6997 150.165 21.9735 146.232 25.3717Z" fill="#02527E"/>
<path d="M134.244 113.56C135.087 114.345 135.764 115.291 136.233 116.343C136.703 117.395 136.955 118.531 136.975 119.683C136.995 120.834 136.782 121.978 136.35 123.046C135.917 124.113 135.274 125.083 134.458 125.896L125.895 134.458C125.083 135.269 124.116 135.908 123.052 136.338C121.988 136.768 120.849 136.981 119.702 136.964C118.554 136.946 117.422 136.699 116.372 136.236C115.321 135.774 114.374 135.106 113.587 134.271C108.476 128.224 59.9107 70.9888 57.7969 68.495C14.9844 68.495 0 44.3916 0 8.58976C0 1.12435 8.91035 -2.78228 14.3957 2.30169L134.244 113.56Z" fill="#C9DDE9"/>
</g>
<defs>
<clipPath id="clip0_152_88">
<rect width="154.125" height="137" fill="white"/>
</clipPath>
</defs>
</svg>
