<svg width="113" height="64" viewBox="0 0 113 64" fill="none" xmlns="http://www.w3.org/2000/svg">
<path d="M63.887 0.75C46.3089 0.75 30.969 11.4473 22.428 20.5996L5.37137 7.70899C3.00223 5.91602 -0.53488 7.82617 0.070589 10.5723L4.79324 32L0.0686358 53.4394C-0.536833 56.1855 2.99832 58.0938 5.36942 56.3027L22.4261 43.4023C30.9671 52.5527 46.3147 63.25 63.887 63.25C90.7346 63.25 112.5 38.25 112.5 32C112.5 25.75 90.7346 0.75 63.887 0.75ZM80.9632 38.25C79.727 38.25 78.5186 37.8834 77.4908 37.1967C76.463 36.5099 75.6619 35.5338 75.1889 34.3918C74.7159 33.2497 74.5921 31.9931 74.8332 30.7807C75.0744 29.5683 75.6697 28.4547 76.5437 27.5806C77.4178 26.7065 78.5315 26.1112 79.7438 25.8701C80.9562 25.6289 82.2129 25.7527 83.3549 26.2258C84.497 26.6988 85.4731 27.4999 86.1598 28.5277C86.8466 29.5555 87.2132 30.7639 87.2132 32C87.2132 33.6576 86.5547 35.2473 85.3826 36.4194C84.2105 37.5915 82.6208 38.25 80.9632 38.25Z" fill="#C3E0F0"/>
</svg>
