<svg width="100" height="80" viewBox="0 0 100 80" fill="none" xmlns="http://www.w3.org/2000/svg">
<path d="M99.1252 58.6078L82.0861 31.1125C81.5908 30.3703 80.7955 30 80.0002 30C79.2049 30 78.4096 30.3719 77.9143 31.1125L60.8752 58.6078C60.2705 59.5109 59.9236 60.5953 60.0143 61.6766C60.869 71.9375 69.4908 80 80.0002 80C90.5111 80 99.133 71.9375 99.9861 61.6766C100.075 60.5953 99.7299 59.5109 99.1252 58.6078ZM79.9939 37.225L94.1049 60H65.7846L79.9939 37.225ZM80.0002 75C73.5502 75 67.969 70.8172 65.8721 65H94.1846C92.1174 70.7609 86.4971 75 80.0002 75ZM82.7955 25.4359L83.5893 23.0656C83.808 22.4109 83.4549 21.7031 82.8002 21.4844L59.2908 13.6172C59.7393 12.4969 60.0002 11.2828 60.0002 10C60.0002 4.47656 55.5236 0 50.0002 0C45.419 0 41.5986 3.09844 40.4158 7.30156L18.7877 0.065625C18.133 -0.153125 17.4252 0.2 17.2065 0.854687L16.4127 3.225C16.194 3.87969 16.5471 4.5875 17.2018 4.80625L40.3721 12.5594C41.2955 16.0328 44.0174 18.7437 47.5002 19.6469V75H16.2502C15.5596 75 15.0002 75.5594 15.0002 76.25V78.75C15.0002 79.4406 15.5596 80 16.2502 80H51.2502C51.9408 80 52.5002 79.4406 52.5002 78.75V19.6469C53.8502 19.2969 55.0783 18.675 56.144 17.8375L81.2143 26.225C81.8674 26.4437 82.5752 26.0906 82.7955 25.4359ZM50.0002 15C47.244 15 45.0002 12.7563 45.0002 10C45.0002 7.24375 47.244 5 50.0002 5C52.7565 5 55.0002 7.24375 55.0002 10C55.0002 12.7563 52.7565 15 50.0002 15ZM39.9862 41.6766C40.0768 40.5953 39.7299 39.5109 39.1252 38.6078L22.0862 11.1125C21.5908 10.3719 20.7955 10 20.0002 10C19.2049 10 18.4096 10.3719 17.9143 11.1125L0.875223 38.6078C0.270535 39.5109 -0.0763394 40.5953 0.0142855 41.6766C0.868973 51.9375 9.49085 60 20.0002 60C30.5096 60 39.1315 51.9375 39.9862 41.6766ZM19.994 17.225L34.1049 40H5.7846L19.994 17.225ZM5.8721 45H34.1846C32.1174 50.7609 26.4971 55 20.0002 55C13.5502 55 7.96897 50.8172 5.8721 45Z" fill="#02527E"/>
</svg>
