<svg width="100" height="80" viewBox="0 0 100 80" fill="none" xmlns="http://www.w3.org/2000/svg">
<path d="M69.2938 2.825C64.0266 0.907812 58.6422 0 53.3453 0C39.2094 0 25.7141 6.47656 16.8703 17.5516C15.8234 18.8625 16.4531 20.8391 18.0297 21.4125L54.9281 34.8422L40.3109 75H1.25C0.559375 75 0 75.5594 0 76.25V78.75C0 79.4406 0.559375 80 1.25 80H88.75C89.4406 80 90 79.4406 90 78.75V76.25C90 75.5594 89.4406 75 88.75 75H45.6297L59.6234 36.5516L96.6156 50.0156C96.9016 50.1203 97.1938 50.1687 97.4797 50.1687C98.7719 50.1687 99.9516 49.1766 99.9859 47.8031C100.459 28.325 88.6156 9.85781 69.2938 2.825ZM23.1516 17.9562C30.9547 9.7875 41.9953 5 53.3469 5C54.5672 5 55.7844 5.05469 56.9969 5.1625C51.2359 8.78125 45.4719 15.5719 40.8937 24.4141L23.1516 17.9562ZM72.4031 35.8828L45.6656 26.1516C51.9828 14.2078 60.1391 7.20312 65.6875 7.20156C66.3672 7.20156 66.9875 7.30781 67.5828 7.52344C70.6391 8.63594 72.8906 13.0172 73.6078 19.2422C74.1797 24.2156 73.6906 29.9375 72.4031 35.8828ZM77.2156 37.6344C79.3766 28.0141 79.3516 19.1531 77.325 12.6906C87.5328 19.8906 94.1344 31.3547 94.9203 44.0797L77.2156 37.6344Z" fill="#02527E"/>
</svg>
