<svg width="40" height="40" viewBox="0 0 40 40" fill="none" xmlns="http://www.w3.org/2000/svg">
<g clip-path="url(#clip0_58_325)">
<path d="M38.5467 1.92168L30.4217 0.0466822C29.5389 -0.156443 28.6327 0.304495 28.2733 1.13262L24.5233 9.88262C24.1952 10.6482 24.4139 11.5467 25.0623 12.0701L29.7967 15.9451C26.9842 21.9373 22.0702 26.9217 15.953 29.7889L12.078 25.0545C11.5467 24.4061 10.6561 24.1873 9.89046 24.5154L1.14046 28.2654C0.304525 28.6326 -0.156413 29.5389 0.0467122 30.4217L1.92171 38.5467C2.11702 39.3904 2.86702 39.9998 3.74984 39.9998C23.7577 39.9998 39.9998 23.7889 39.9998 3.74981C39.9998 2.87481 39.3983 2.11699 38.5467 1.92168Z" fill="#02527E"/>
</g>
<defs>
<clipPath id="clip0_58_325">
<rect width="40" height="40" fill="white"/>
</clipPath>
</defs>
</svg>
