<svg width="155" height="103" viewBox="0 0 155 103" fill="none" xmlns="http://www.w3.org/2000/svg">
<path d="M153.373 90.7457L115.969 5.12068C114.639 2.07564 111.741 0.125 108.551 0.125H82.4384L83.094 6.32211C83.1256 6.62152 83.0937 6.92422 83.0004 7.21046C82.907 7.4967 82.7544 7.76004 82.5524 7.98327C82.3503 8.2065 82.1035 8.38461 81.828 8.50595C81.5524 8.6273 81.2544 8.68917 80.9533 8.6875H73.1615C72.8604 8.68917 72.5624 8.6273 72.2868 8.50595C72.0113 8.38461 71.7645 8.2065 71.5625 7.98327C71.3604 7.76004 71.2078 7.4967 71.1144 7.21046C71.0211 6.92422 70.9892 6.62152 71.0208 6.32211L71.6871 0.125H45.5742C43.9849 0.143264 42.4357 0.625932 41.1173 1.51357C39.799 2.4012 38.769 3.65505 38.1542 5.12068L0.749461 90.7457C-1.72564 96.4157 2.22382 102.875 8.17208 102.875H60.8422L63.6009 76.738C63.7119 75.6863 64.2083 74.7129 64.9944 74.0054C65.7804 73.2979 66.8005 72.9063 67.8581 72.9062H86.2674C87.325 72.9063 88.3451 73.2979 89.1311 74.0054C89.9172 74.7129 90.4136 75.6863 90.5246 76.738L93.2833 102.875H145.953C151.902 102.875 155.851 96.4157 153.373 90.7457ZM68.4494 30.8269L69.6776 19.1659C69.7333 18.6379 69.9832 18.1495 70.3788 17.7955C70.7744 17.4415 71.2874 17.2471 71.8182 17.25H82.3314C82.8622 17.2471 83.3752 17.4415 83.7708 17.7955C84.1664 18.1495 84.4163 18.6379 84.472 19.1659L85.7029 30.8269C85.7503 31.2762 85.7024 31.7305 85.5622 32.1601C85.4221 32.5896 85.1929 32.9848 84.8895 33.3197C84.5862 33.6545 84.2157 33.9216 83.802 34.1035C83.3884 34.2854 82.9411 34.3779 82.4892 34.375H71.6416C71.1916 34.3749 70.7466 34.2801 70.3356 34.0969C69.9245 33.9138 69.5566 33.6462 69.2556 33.3117C68.9546 32.9771 68.7273 32.583 68.5884 32.155C68.4495 31.7269 68.4022 31.2745 68.4494 30.8269ZM84.4586 64.3438H69.6642C69.0641 64.3437 68.4707 64.2175 67.9225 63.9733C67.3744 63.7291 66.8837 63.3724 66.4822 62.9263C66.0808 62.4802 65.7776 61.9547 65.5924 61.3839C65.4072 60.8131 65.344 60.2098 65.4071 59.613L66.7637 46.7692C66.8747 45.7175 67.3711 44.7441 68.1571 44.0366C68.9432 43.3291 69.9633 42.9376 71.0208 42.9375H83.102C84.1596 42.9376 85.1796 43.3291 85.9657 44.0366C86.7518 44.7441 87.2481 45.7175 87.3592 46.7692L88.7158 59.613C88.7788 60.2098 88.7156 60.8131 88.5304 61.3839C88.3452 61.9547 88.042 62.4802 87.6406 62.9263C87.2392 63.3724 86.7485 63.7291 86.2003 63.9733C85.6521 64.2175 85.0587 64.3437 84.4586 64.3438Z" fill="#02527E"/>
</svg>
