<svg width="172" height="137" viewBox="0 0 172 137" fill="none" xmlns="http://www.w3.org/2000/svg">
<g clip-path="url(#clip0_152_62)">
<path d="M143.957 32.1094L117.114 26.3484C113.039 25.4793 108.827 25.4677 104.748 26.3144C100.668 27.1611 96.8094 28.8475 93.4169 31.2665L72.0053 46.5586C69.2265 48.5403 66.8082 50.9839 64.8556 53.7832L46.4917 80.0059C48.0128 80.8843 49.4355 81.9231 50.7355 83.1044C51.6827 83.9767 54.8214 85.625 59.9375 85.625C65.0536 85.625 68.195 83.9767 69.1395 83.1044C73.4208 79.1523 78.371 77.0625 83.4442 77.0625H87.8058C92.8897 77.0625 97.8266 79.1523 102.11 83.1044C103.058 83.9767 106.196 85.625 111.312 85.625C116.429 85.625 119.57 83.9767 120.515 83.1044C124.491 79.4359 129.045 77.4532 133.73 77.1749L103.537 55.6081L108.353 52.167C108.838 51.8261 109.388 51.5882 109.969 51.4681C110.55 51.348 111.149 51.3482 111.73 51.4687L138.581 57.2296C141.913 57.9425 145.39 57.3028 148.25 55.4514C151.11 53.6 153.116 50.6885 153.829 47.3573C154.542 44.0262 153.903 40.5483 152.051 37.6887C150.2 34.8292 147.288 32.8222 143.957 32.1094ZM29.9688 25.6875C25.735 25.6875 21.5963 26.943 18.0761 29.2951C14.5558 31.6473 11.8122 34.9905 10.192 38.9019C8.57177 42.8134 8.14786 47.1175 8.97382 51.2699C9.79979 55.4223 11.8385 59.2365 14.8323 62.2303C17.826 65.224 21.6402 67.2627 25.7926 68.0887C29.945 68.9146 34.2491 68.4907 38.1606 66.8705C42.0721 65.2504 45.4152 62.5067 47.7674 58.9864C50.1195 55.4662 51.375 51.3275 51.375 47.0938C51.375 44.2826 50.8213 41.4991 49.7456 38.9019C48.6698 36.3048 47.093 33.945 45.1053 31.9572C43.1175 29.9695 40.7577 28.3927 38.1606 27.317C35.5634 26.2412 32.7799 25.6875 29.9688 25.6875Z" fill="#02527E"/>
<path d="M171.25 98.4688V107.031C171.25 108.167 170.799 109.256 169.996 110.059C169.193 110.861 168.104 111.312 166.969 111.312H162.688C152.354 111.312 143.229 108.053 137 102.793C130.771 108.051 121.646 111.312 111.312 111.312C100.979 111.312 91.8542 108.053 85.625 102.793C79.3958 108.051 70.2714 111.312 59.9375 111.312C49.6036 111.312 40.4792 108.053 34.25 102.793C28.0208 108.051 18.8964 111.312 8.5625 111.312H4.28125C3.14579 111.312 2.05684 110.861 1.25395 110.059C0.451059 109.256 0 108.167 0 107.031V98.4688C0 97.3333 0.451059 96.2443 1.25395 95.4414C2.05684 94.6386 3.14579 94.1875 4.28125 94.1875H8.5625C15.5195 94.1875 20.8176 91.9345 23.5656 89.3979C25.9471 87.201 28.8262 85.625 32.0666 85.625H36.4281C39.6685 85.625 42.5476 87.201 44.929 89.3979C47.6824 91.9345 52.9805 94.1875 59.9375 94.1875C66.8945 94.1875 72.1926 91.9345 74.9406 89.3979C77.3221 87.201 80.2012 85.625 83.4416 85.625H87.8031C91.0435 85.625 93.9226 87.201 96.304 89.3979C99.0574 91.9345 104.355 94.1875 111.312 94.1875C118.27 94.1875 123.568 91.9345 126.316 89.3979C128.697 87.201 131.576 85.625 134.817 85.625H139.178C142.418 85.625 145.298 87.201 147.679 89.3979C150.432 91.9345 155.73 94.1875 162.688 94.1875H166.969C168.104 94.1875 169.193 94.6386 169.996 95.4414C170.799 96.2443 171.25 97.3333 171.25 98.4688Z" fill="#C9DDE9"/>
</g>
<defs>
<clipPath id="clip0_152_62">
<rect width="171.25" height="137" fill="white"/>
</clipPath>
</defs>
</svg>
