<svg width="542" height="384" viewBox="0 0 542 384" fill="none" xmlns="http://www.w3.org/2000/svg">
<path d="M562.1 319.852C540.6 317.452 520 309.352 504.2 296.952C490.1 285.852 470 285.652 456 296.952C418.1 327.352 348.8 327.352 310.3 295.452C296.8 284.252 277.3 286.352 263.6 297.252C225.6 327.352 156.7 327.252 118.4 295.552C104.9 284.352 85.1 286.652 71.3 297.552C55.8 309.752 35.3 317.652 13.6 319.952C5.7 320.752 0 327.752 0 335.652V367.852C0 376.952 7.6 384.652 16.7 383.852C45.5 381.352 72.8 372.452 96.1 357.952C152.6 392.552 233.1 392.052 288.1 357.952C344.6 392.552 425.1 392.052 480.1 357.952C503.4 372.152 531 381.252 559.2 383.752C568.3 384.552 575.9 376.852 575.9 367.752V336.152C576 328.152 570.2 320.752 562.1 319.852ZM562.1 175.852C540.6 173.452 520 165.352 504.2 152.952C490.1 141.852 470 141.652 456 152.952C418.1 183.352 348.8 183.352 310.3 151.452C296.8 140.252 277.3 142.352 263.6 153.252C225.6 183.352 156.7 183.252 118.4 151.552C104.9 140.352 85.1 142.652 71.3 153.552C55.8 165.752 35.3 173.652 13.6 175.952C5.7 176.752 0 183.752 0 191.652V223.852C0 232.952 7.6 240.652 16.7 239.852C45.5 237.352 72.8 228.452 96.1 213.952C152.6 248.552 233.1 248.052 288.1 213.952C344.6 248.552 425.1 248.052 480.1 213.952C503.4 228.152 531 237.252 559.2 239.752C568.3 240.552 575.9 232.852 575.9 223.752V192.152C576 184.152 570.2 176.752 562.1 175.852ZM562.1 31.8516C540.6 29.3516 520 21.3516 504.2 8.95164C490.1 -2.14836 470 -2.34836 456 8.95164C418.1 39.3516 348.8 39.3516 310.3 7.45164C296.8 -3.74836 277.3 -1.64836 263.6 9.25164C225.6 39.3516 156.7 39.2516 118.4 7.55164C104.9 -3.64836 85.1 -1.34836 71.3 9.55164C55.8 21.7516 35.3 29.6516 13.6 31.9516C5.7 32.7516 0 39.7516 0 47.6516V79.8516C0 88.9516 7.6 96.6516 16.7 95.8516C45.5 93.3516 72.8 84.4516 96.1 69.9516C152.6 104.552 233.1 104.052 288.1 69.9516C344.6 104.552 425.1 104.052 480.1 69.9516C503.4 84.1516 531 93.2516 559.2 95.7516C568.3 96.5516 575.9 88.8516 575.9 79.7516V48.1516C576 40.1516 570.2 32.7516 562.1 31.8516Z" fill="url(#paint0_linear_152_92)"/>
<defs>
<linearGradient id="paint0_linear_152_92" x1="648" y1="482.952" x2="125.5" y2="31.9516" gradientUnits="userSpaceOnUse">
<stop stop-color="#02527E" stop-opacity="0.26"/>
<stop offset="1" stop-color="#C4C4C4" stop-opacity="0"/>
</linearGradient>
</defs>
</svg>
